<svg width="288" height="268" viewBox="0 0 288 268" fill="none" xmlns="http://www.w3.org/2000/svg">
<rect width="288" height="268" fill="none"/>
<path style="fill:#ffffff" d="M48.6175 260.416C45.6058 259.596 41.3153 257.855 39.0831 256.547C33.25 253.128 25.8797 244.846 22.7733 238.218L20.0932 232.5V133.979V35.4579L23.3609 28.8203C27.5001 20.4125 36.2083 12.1043 44.3086 8.83479L50.0932 6.5H109.593H169.093L175.773 9.66452C185.069 14.0688 190.86 19.7383 195.359 28.8391L199.093 36.3953L199.451 51.7307C199.849 68.784 199.116 72.1612 194.502 74.5472C190.947 76.3854 188.239 76.3854 184.684 74.5472C180.563 72.4158 179.719 69.0496 179.39 53.4245C179.109 40.0746 178.955 39.1402 176.411 35.2977C174.935 33.0694 172.01 30.1784 169.911 28.8732L166.093 26.5L110.593 26.2241L55.0932 25.9482L50.6512 28.2241C44.6347 31.3067 40.8591 36.3252 39.6129 42.8961C38.2255 50.2118 38.2255 217.788 39.6129 225.104C40.8591 231.675 44.6347 236.693 50.6512 239.776L55.0932 242.052L110.667 241.776L166.241 241.5L170.294 238.817C172.523 237.342 175.415 234.417 176.72 232.317C178.874 228.852 179.121 227.208 179.39 214.5C179.719 198.95 180.566 195.582 184.684 193.453C190.106 190.649 196.386 192.671 198.56 197.92C199.435 200.031 199.697 205.509 199.436 216.217C199.079 230.907 198.942 231.759 195.914 238.18C191.536 247.464 185.863 253.263 176.755 257.765L169.201 261.5L111.647 261.704C63.2976 261.875 53.2175 261.669 48.6175 260.416V260.416ZM231.516 174.077C229.336 171.896 228.593 170.211 228.593 167.442C228.593 164.115 229.525 162.781 237.593 154.553C242.543 149.506 246.593 145.066 246.593 144.688C246.593 144.31 218.755 144 184.73 144H122.866L120.23 141.364C116.529 137.663 116.529 131.337 120.23 127.636L122.866 125H184.73C218.755 125 246.593 124.69 246.593 124.312C246.593 123.934 242.543 119.494 237.593 114.447C229.525 106.219 228.593 104.885 228.593 101.558C228.593 96.1339 232.957 92 238.683 92C242.788 92 243.365 92.4338 256.283 105.225C271.787 120.577 274.593 125.064 274.593 134.5C274.593 143.936 271.787 148.423 256.283 163.775C243.365 176.566 242.788 177 238.683 177C235.326 177 233.829 176.389 231.516 174.077Z" fill="white"/>
</svg>
