<?xml version="1.0" encoding="UTF-8" standalone="no"?>
<!-- Created with Inkscape (http://www.inkscape.org/) -->

<svg
   xmlns:dc="http://purl.org/dc/elements/1.1/"
   xmlns:cc="http://creativecommons.org/ns#"
   xmlns:rdf="http://www.w3.org/1999/02/22-rdf-syntax-ns#"
   xmlns:svg="http://www.w3.org/2000/svg"
   xmlns="http://www.w3.org/2000/svg"
   xmlns:sodipodi="http://sodipodi.sourceforge.net/DTD/sodipodi-0.dtd"
   xmlns:inkscape="http://www.inkscape.org/namespaces/inkscape"
   version="1.1"
   id="svg2"
   width="389"
   height="355"
   viewBox="0 0 389 355"
   sodipodi:docname="exit2.svg"
   inkscape:version="0.92.4 (5da689c313, 2019-01-14)">
  <metadata
     id="metadata8">
    <rdf:RDF>
      <cc:Work
         rdf:about="">
        <dc:format>image/svg+xml</dc:format>
        <dc:type
           rdf:resource="http://purl.org/dc/dcmitype/StillImage" />
        <dc:title></dc:title>
      </cc:Work>
    </rdf:RDF>
  </metadata>
  <defs
     id="defs6" />
  <sodipodi:namedview
     pagecolor="#ffffff"
     bordercolor="#666666"
     borderopacity="1"
     objecttolerance="10"
     gridtolerance="10"
     guidetolerance="10"
     inkscape:pageopacity="0"
     inkscape:pageshadow="2"
     inkscape:window-width="1920"
     inkscape:window-height="1018"
     id="namedview4"
     showgrid="false"
     inkscape:zoom="0.66478873"
     inkscape:cx="194.5"
     inkscape:cy="177.5"
     inkscape:window-x="-8"
     inkscape:window-y="-8"
     inkscape:window-maximized="1"
     inkscape:current-layer="svg2" />
  <path
     style="fill:#ffffff"
     d="m 30.504242,347.29148 c -4.5593,-2.23968 -8.1642,-5.89507 -10.29003,-10.43414 -1.59012,-3.39522 -1.70997,-14.45906 -1.70997,-157.84887 0,-143.389809 0.11985,-154.453649 1.70997,-157.848869 2.18756,-4.67088 5.8023,-8.26844 10.5365,-10.4864 3.33876,-1.5641996 6.71228,-1.7230796 31,-1.4599696 l 27.25353,0.29524 4.6206,3.2090196 c 7.748508,5.38135 11.053808,16.16636 7.530928,24.5731 -1.830788,4.3689 -6.416108,9.64846 -9.562868,11.01074 -1.42376,0.61637 -8.73963,1.36513 -16.25748,1.66391 -7.51785,0.29878 -14.04285,0.91823 -14.5,1.37657 -1.08669,1.0895 -1.08669,254.243829 0,255.333329 0.45715,0.45833 6.98215,1.07778 14.5,1.37656 7.51785,0.29878 14.83372,1.04754 16.25748,1.66391 3.14676,1.36229 7.73208,6.64185 9.562868,11.01074 3.52288,8.40674 0.21758,19.19176 -7.530928,24.5731 l -4.6206,3.20902 -27.5,0.25116 c -24.30692,0.222 -27.9064,0.0515 -31,-1.46815 z M 284.52461,281.75847 c -7.42689,-4.47722 -10.31622,-9.91718 -9.80357,-18.45788 0.3271,-5.44942 0.94182,-7.03774 5.03134,-13 2.5623,-3.73567 5.55785,-7.91712 6.65679,-9.29212 9.98017,-12.48728 29.08294,-39.21062 28.59429,-40.00127 -0.40322,-0.65242 -30.3658,-0.99873 -86.40901,-0.99873 -61.47695,0 -86.75516,-0.32256 -89.19099,-1.1381 -9.01316,-3.01772 -13.89922,-9.99987 -13.89922,-19.8619 0,-9.86203 4.88606,-16.84418 13.89922,-19.8619 2.43771,-0.81617 28.10759,-1.1381 90.75,-1.1381 59.44155,0 87.35078,-0.33013 87.35078,-1.03326 0,-0.95621 -23.13298,-34.39472 -32.49191,-46.96674 -5.41874,-7.2791 -6.50809,-10.044309 -6.50809,-16.520209 0,-7.1229 3.19977,-12.94429 9.47049,-17.22979 4.04759,-2.76618 5.63785,-3.25 10.68236,-3.25 6.45164,0 11.83357,2.13918 15.47947,6.15269 1.17278,1.29102 8.57333,11.57231 16.44567,22.847309 7.87234,11.275 14.58722,20.725 14.92194,21 0.33473,0.275 7.81508,10.85 16.623,23.5 10.86998,15.61154 16.43564,24.52588 17.3257,27.75 2.16982,7.8599 0.39021,11.9457 -13.17564,30.25 -6.52194,8.8 -12.42381,16.68739 -13.11527,17.52754 -0.69146,0.84015 -9.30165,12.31515 -19.13375,25.5 -22.65953,30.38643 -24.9581,33.14313 -29.61698,35.51991 -6.10849,3.11632 -13.34853,2.64396 -19.88662,-1.29745 z"
     id="path817"
     inkscape:connector-curvature="0" />
</svg>
